<?xml version="1.0" encoding="UTF-8" standalone="no"?>
<!-- Created with Inkscape (http://www.inkscape.org/) -->

<svg
   width="90mm"
   height="23.6mm"
   viewBox="0 0 90 23.6"
   version="1.1"
   id="svg1"
   sodipodi:docname="openllum logo.svg"
   inkscape:version="1.4 (e7c3feb100, 2024-10-09)"
   xmlns:inkscape="http://www.inkscape.org/namespaces/inkscape"
   xmlns:sodipodi="http://sodipodi.sourceforge.net/DTD/sodipodi-0.dtd"
   xmlns="http://www.w3.org/2000/svg"
   xmlns:svg="http://www.w3.org/2000/svg">
  <sodipodi:namedview
     id="namedview1"
     pagecolor="#ffffff"
     bordercolor="#666666"
     borderopacity="1.0"
     inkscape:showpageshadow="2"
     inkscape:pageopacity="0.0"
     inkscape:pagecheckerboard="0"
     inkscape:deskcolor="#d1d1d1"
     inkscape:document-units="mm"
     showgrid="false"
     inkscape:zoom="8.334375"
     inkscape:cx="170.07874"
     inkscape:cy="44.574428"
     inkscape:window-width="3840"
     inkscape:window-height="1995"
     inkscape:window-x="1440"
     inkscape:window-y="44"
     inkscape:window-maximized="1"
     inkscape:current-layer="svg1" />
  <defs
     id="defs1" />
  <g
     id="layer1">
    <g
       id="g131"
       transform="matrix(0.9995281,0,0,1.0000168,-0.14588004,-3.5323161e-4)"
       style="display:inline;stroke-width:1.00023">
      <path
         style="font-weight:800;font-size:20.0531px;line-height:1.25;font-family:'Helvetica Now Display';-inkscape-font-specification:'Helvetica Now Display Ultra-Bold';fill:#f2f2f2;fill-opacity:1;stroke-width:0.264643"
         d="m 80.462805,8.6494 1.864938,-6.07609 h 5.073434 V 16.851118 H 84.172628 V 12.66002 q 0,-3.990567 0.120319,-6.898267 -0.381009,1.463877 -0.962549,3.248603 l -2.466531,7.840762 H 78.096539 L 75.630007,9.010356 q -0.441168,-1.42377 -0.942495,-3.228549 0.100265,3.36892 0.100265,6.878213 v 4.191098 H 71.559228 V 2.57331 h 5.073434 l 1.884992,6.136249 q 0.381009,1.303452 0.982602,3.549399 0.481274,-1.905045 0.962549,-3.609558 z"
         id="path7" />
      <path
         style="font-weight:800;font-size:20.0531px;line-height:1.25;font-family:'Helvetica Now Display';-inkscape-font-specification:'Helvetica Now Display Ultra-Bold';fill:#f2f2f2;fill-opacity:1;stroke-width:0.264643"
         d="m 63.377548,17.171968 q -2.787381,0 -4.491894,-1.503983 Q 57.18114,14.204109 57.18114,11.416728 V 2.57331 h 3.388974 v 8.883524 q 0,1.363611 0.721912,2.085522 0.741964,0.701859 2.085522,0.701859 1.343558,0 2.085523,-0.701859 0.741964,-0.721911 0.741964,-2.085522 V 2.57331 h 3.388974 v 8.843418 q 0,2.747275 -1.664407,4.251257 -1.644354,1.503983 -4.552054,1.503983 z"
         id="path6" />
      <path
         style="font-weight:800;font-size:20.0531px;line-height:1.25;font-family:'Helvetica Now Display';-inkscape-font-specification:'Helvetica Now Display Ultra-Bold';fill:#f2f2f2;fill-opacity:1;stroke-width:0.264643"
         d="M 49.841703,2.57331 V 13.8231 h 6.537311 v 3.028018 H 46.452729 V 2.57331 Z"
         id="path5" />
      <path
         style="font-weight:800;font-size:20.0531px;line-height:1.25;font-family:'Helvetica Now Display';-inkscape-font-specification:'Helvetica Now Display Ultra-Bold';fill:#f2f2f2;fill-opacity:1;stroke-width:0.264643"
         d="M 38.571855,2.57331 V 13.8231 h 6.537311 v 3.028018 H 35.182881 V 2.57331 Z"
         id="text1" />
      <text
         xml:space="preserve"
         style="font-weight:800;font-size:10.886px;line-height:1.25;font-family:'Helvetica Now Display';-inkscape-font-specification:'Helvetica Now Display Ultra-Bold';display:inline;fill:#f3cf14;fill-opacity:1;stroke-width:0.264643"
         x="2.1357472"
         y="16.8969"
         id="text3"><tspan
           id="tspan3"
           style="fill:#f3cf14;fill-opacity:1;stroke-width:0.264643"
           x="2.1357472"
           y="16.8969">OPEN</tspan></text>
      <rect
         style="fill:#b20000;fill-opacity:1;stroke-width:0.100023"
         id="rect8"
         width="9.9740763"
         height="3"
         x="35.113861"
         y="18" />
      <rect
         style="fill:#00b240;fill-opacity:1;stroke-width:0.100023"
         id="rect8-2"
         width="9.9740763"
         height="3"
         x="46.530155"
         y="18" />
      <rect
         style="fill:#000ab2;fill-opacity:1;stroke-width:0.100023"
         id="rect9"
         width="12.422063"
         height="3"
         x="57.195004"
         y="18" />
      <rect
         style="fill:#f2f2f2;fill-opacity:1;stroke-width:0.100022"
         id="rect10"
         width="15.868324"
         height="3"
         x="71.568817"
         y="18" />
    </g>
  </g>
</svg>
